<mxfile host="app.diagrams.net" modified="2023-07-03T12:13:07.841Z" agent="Mozilla/5.0 (Windows NT 10.0; Win64; x64) AppleWebKit/537.36 (KHTML, like Gecko) Chrome/114.0.0.0 Safari/537.36" etag="Vxzq66m_BbKSsC2RnXDO" version="21.5.2" type="github">
  <diagram name="Page-1" id="e7e014a7-5840-1c2e-5031-d8a46d1fe8dd">
    <mxGraphModel dx="693" dy="495" grid="1" gridSize="10" guides="1" tooltips="1" connect="1" arrows="1" fold="1" page="1" pageScale="1" pageWidth="1169" pageHeight="826" background="none" math="0" shadow="0">
      <root>
        <mxCell id="0" />
        <mxCell id="1" parent="0" />
        <mxCell id="qPGdssRyhVm68Yn7tZcq-66" value="" style="rounded=0;whiteSpace=wrap;html=1;" vertex="1" parent="1">
          <mxGeometry x="570" y="391.5" width="590" height="230" as="geometry" />
        </mxCell>
        <mxCell id="qPGdssRyhVm68Yn7tZcq-64" style="edgeStyle=orthogonalEdgeStyle;rounded=0;orthogonalLoop=1;jettySize=auto;html=1;" edge="1" parent="1" source="qPGdssRyhVm68Yn7tZcq-41">
          <mxGeometry relative="1" as="geometry">
            <mxPoint x="730" y="550" as="targetPoint" />
          </mxGeometry>
        </mxCell>
        <mxCell id="qPGdssRyhVm68Yn7tZcq-41" value="后端服务" style="rounded=1;whiteSpace=wrap;html=1;" vertex="1" parent="1">
          <mxGeometry x="850" y="520" width="120" height="60" as="geometry" />
        </mxCell>
        <mxCell id="qPGdssRyhVm68Yn7tZcq-60" style="edgeStyle=orthogonalEdgeStyle;rounded=0;orthogonalLoop=1;jettySize=auto;html=1;exitX=0.5;exitY=1;exitDx=0;exitDy=0;" edge="1" parent="1" source="qPGdssRyhVm68Yn7tZcq-42" target="qPGdssRyhVm68Yn7tZcq-41">
          <mxGeometry relative="1" as="geometry" />
        </mxCell>
        <mxCell id="qPGdssRyhVm68Yn7tZcq-42" value="sprk集群" style="rounded=1;whiteSpace=wrap;html=1;" vertex="1" parent="1">
          <mxGeometry x="850" y="413" width="120" height="60" as="geometry" />
        </mxCell>
        <mxCell id="qPGdssRyhVm68Yn7tZcq-56" style="edgeStyle=orthogonalEdgeStyle;rounded=0;orthogonalLoop=1;jettySize=auto;html=1;exitX=1;exitY=0.5;exitDx=0;exitDy=0;entryX=0;entryY=0.5;entryDx=0;entryDy=0;" edge="1" parent="1" source="qPGdssRyhVm68Yn7tZcq-44" target="qPGdssRyhVm68Yn7tZcq-41">
          <mxGeometry relative="1" as="geometry" />
        </mxCell>
        <mxCell id="qPGdssRyhVm68Yn7tZcq-65" value="相应交互" style="edgeLabel;html=1;align=center;verticalAlign=middle;resizable=0;points=[];" vertex="1" connectable="0" parent="qPGdssRyhVm68Yn7tZcq-56">
          <mxGeometry x="-0.1225" y="1" relative="1" as="geometry">
            <mxPoint as="offset" />
          </mxGeometry>
        </mxCell>
        <mxCell id="qPGdssRyhVm68Yn7tZcq-44" value="前端界面" style="rounded=1;whiteSpace=wrap;html=1;" vertex="1" parent="1">
          <mxGeometry x="610" y="520" width="120" height="60" as="geometry" />
        </mxCell>
        <mxCell id="qPGdssRyhVm68Yn7tZcq-58" style="edgeStyle=orthogonalEdgeStyle;rounded=0;orthogonalLoop=1;jettySize=auto;html=1;entryX=1;entryY=0.5;entryDx=0;entryDy=0;" edge="1" parent="1" source="qPGdssRyhVm68Yn7tZcq-45" target="qPGdssRyhVm68Yn7tZcq-42">
          <mxGeometry relative="1" as="geometry" />
        </mxCell>
        <mxCell id="qPGdssRyhVm68Yn7tZcq-63" value="数据处理" style="edgeLabel;html=1;align=center;verticalAlign=middle;resizable=0;points=[];" vertex="1" connectable="0" parent="qPGdssRyhVm68Yn7tZcq-58">
          <mxGeometry x="0.4968" y="-1" relative="1" as="geometry">
            <mxPoint as="offset" />
          </mxGeometry>
        </mxCell>
        <mxCell id="qPGdssRyhVm68Yn7tZcq-59" style="edgeStyle=orthogonalEdgeStyle;rounded=0;orthogonalLoop=1;jettySize=auto;html=1;entryX=1;entryY=0.75;entryDx=0;entryDy=0;" edge="1" parent="1" source="qPGdssRyhVm68Yn7tZcq-45" target="qPGdssRyhVm68Yn7tZcq-41">
          <mxGeometry relative="1" as="geometry" />
        </mxCell>
        <mxCell id="qPGdssRyhVm68Yn7tZcq-45" value="数据存储" style="rounded=1;whiteSpace=wrap;html=1;" vertex="1" parent="1">
          <mxGeometry x="1020" y="470" width="120" height="73" as="geometry" />
        </mxCell>
        <mxCell id="qPGdssRyhVm68Yn7tZcq-54" value="" style="edgeStyle=orthogonalEdgeStyle;rounded=0;orthogonalLoop=1;jettySize=auto;html=1;" edge="1" parent="1" source="qPGdssRyhVm68Yn7tZcq-46" target="qPGdssRyhVm68Yn7tZcq-44">
          <mxGeometry relative="1" as="geometry" />
        </mxCell>
        <mxCell id="qPGdssRyhVm68Yn7tZcq-55" value="发送请求" style="edgeLabel;html=1;align=center;verticalAlign=middle;resizable=0;points=[];" vertex="1" connectable="0" parent="qPGdssRyhVm68Yn7tZcq-54">
          <mxGeometry x="0.0185" y="1" relative="1" as="geometry">
            <mxPoint as="offset" />
          </mxGeometry>
        </mxCell>
        <mxCell id="qPGdssRyhVm68Yn7tZcq-46" value="Actor" style="shape=umlActor;verticalLabelPosition=bottom;verticalAlign=top;html=1;outlineConnect=0;" vertex="1" parent="1">
          <mxGeometry x="655" y="400" width="30" height="60" as="geometry" />
        </mxCell>
      </root>
    </mxGraphModel>
  </diagram>
</mxfile>
